<?xml version="1.0" encoding="UTF-8"?>
<svg xmlns="http://www.w3.org/2000/svg" xmlns:xlink="http://www.w3.org/1999/xlink" xmlns:svgjs="http://svgjs.com/svgjs" version="1.1" width="512" height="512" x="0" y="0" viewBox="0 0 64 64" style="enable-background:new 0 0 512 512" xml:space="preserve" class="">
  <g>
    <g xmlns="http://www.w3.org/2000/svg" id="telephone-landline_telephone-caller-handle-telephone_cable" data-name="telephone-landline telephone-caller-handle-telephone cable">
      <path d="m59 8h-35v-3a3.009 3.009 0 0 0 -3-3h-12a3.009 3.009 0 0 0 -3 3v3h-1a3.009 3.009 0 0 0 -3 3v34a3.009 3.009 0 0 0 3 3h1v3a3.009 3.009 0 0 0 3 3h3v1a3.01 3.01 0 0 0 2 2.82v1.18a3.009 3.009 0 0 0 3 3h35a5 5 0 0 0 5-5v-5.18a3.01 3.01 0 0 0 2-2.82v-1a3.009 3.009 0 0 0 3-3v-34a3.009 3.009 0 0 0 -3-3zm-53 38h-1a1 1 0 0 1 -1-1v-34a1 1 0 0 1 1-1h1zm3 6a1 1 0 0 1 -1-1v-46a1 1 0 0 1 1-1h12a1 1 0 0 1 1 1v46a1 1 0 0 1 -1 1zm6 4a1 1 0 0 1 -1-1v-1h2v1a1 1 0 0 1 -1 1zm40 1a3.009 3.009 0 0 1 -3 3h-35a1 1 0 0 1 -1-1v-1.18a3.01 3.01 0 0 0 2-2.82v-1h3a3.009 3.009 0 0 0 3-3v-3h29v1a3.01 3.01 0 0 0 2 2.82zm2-8a1 1 0 0 1 -2 0v-1h2zm3-4a1 1 0 0 1 -1 1h-35v-36h35a1 1 0 0 1 1 1z" fill="#ffffff" data-original="#000000" style="" class=""/>
      <path d="m57 12h-30a1 1 0 0 0 -1 1v30a1 1 0 0 0 1 1h30a1 1 0 0 0 1-1v-30a1 1 0 0 0 -1-1zm-1 30h-28v-28h28z" fill="#ffffff" data-original="#000000" style="" class=""/>
      <path d="m31 26h22a1 1 0 0 0 1-1v-8a1 1 0 0 0 -1-1h-22a1 1 0 0 0 -1 1v8a1 1 0 0 0 1 1zm1-8h20v6h-20z" fill="#ffffff" data-original="#000000" style="" class=""/>
      <path d="m30 28h24v2h-24z" fill="#ffffff" data-original="#000000" style="" class=""/>
      <path d="m31 32h2v2h-2z" fill="#ffffff" data-original="#000000" style="" class=""/>
      <path d="m35 32h2v2h-2z" fill="#ffffff" data-original="#000000" style="" class=""/>
      <path d="m39 32h2v2h-2z" fill="#ffffff" data-original="#000000" style="" class=""/>
      <path d="m43 32h2v2h-2z" fill="#ffffff" data-original="#000000" style="" class=""/>
      <path d="m47 32h2v2h-2z" fill="#ffffff" data-original="#000000" style="" class=""/>
      <path d="m51 32h2v2h-2z" fill="#ffffff" data-original="#000000" style="" class=""/>
      <path d="m31 37h2v2h-2z" fill="#ffffff" data-original="#000000" style="" class=""/>
      <path d="m35 37h2v2h-2z" fill="#ffffff" data-original="#000000" style="" class=""/>
      <path d="m39 37h2v2h-2z" fill="#ffffff" data-original="#000000" style="" class=""/>
      <path d="m43 37h2v2h-2z" fill="#ffffff" data-original="#000000" style="" class=""/>
      <path d="m47 37h2v2h-2z" fill="#ffffff" data-original="#000000" style="" class=""/>
      <path d="m51 37h2v2h-2z" fill="#ffffff" data-original="#000000" style="" class=""/>
      <path d="m33 20v2h2v-1h1v-2h-2a1 1 0 0 0 -1 1z" fill="#ffffff" data-original="#000000" style="" class=""/>
    </g>
  </g>
</svg>
