<?xml version="1.0"?>
<svg xmlns="http://www.w3.org/2000/svg" xmlns:xlink="http://www.w3.org/1999/xlink" xmlns:svgjs="http://svgjs.com/svgjs" version="1.1" width="512" height="512" x="0" y="0" viewBox="0 0 64 64" style="enable-background:new 0 0 512 512" xml:space="preserve" class=""><g><g xmlns="http://www.w3.org/2000/svg" id="Idea-2" data-name="Idea"><path d="m2 4h2v2h-2z" fill="#ffffff" data-original="#000000" style="" class=""/><path d="m4 6h2v2h-2z" fill="#ffffff" data-original="#000000" style="" class=""/><path d="m6 4h2v2h-2z" fill="#ffffff" data-original="#000000" style="" class=""/><path d="m4 2h2v2h-2z" fill="#ffffff" data-original="#000000" style="" class=""/><path d="m2 58h2v2h-2z" fill="#ffffff" data-original="#000000" style="" class=""/><path d="m4 60h2v2h-2z" fill="#ffffff" data-original="#000000" style="" class=""/><path d="m6 58h2v2h-2z" fill="#ffffff" data-original="#000000" style="" class=""/><path d="m4 56h2v2h-2z" fill="#ffffff" data-original="#000000" style="" class=""/><path d="m56 58h2v2h-2z" fill="#ffffff" data-original="#000000" style="" class=""/><path d="m58 60h2v2h-2z" fill="#ffffff" data-original="#000000" style="" class=""/><path d="m60 58h2v2h-2z" fill="#ffffff" data-original="#000000" style="" class=""/><path d="m58 56h2v2h-2z" fill="#ffffff" data-original="#000000" style="" class=""/><path d="m46 56h2v2h-2z" fill="#ffffff" data-original="#000000" style="" class=""/><path d="m48 58h2v2h-2z" fill="#ffffff" data-original="#000000" style="" class=""/><path d="m50 56h2v2h-2z" fill="#ffffff" data-original="#000000" style="" class=""/><path d="m48 54h2v2h-2z" fill="#ffffff" data-original="#000000" style="" class=""/><path d="m36 58h2v2h-2z" fill="#ffffff" data-original="#000000" style="" class=""/><path d="m38 60h2v2h-2z" fill="#ffffff" data-original="#000000" style="" class=""/><path d="m40 58h2v2h-2z" fill="#ffffff" data-original="#000000" style="" class=""/><path d="m38 56h2v2h-2z" fill="#ffffff" data-original="#000000" style="" class=""/><path d="m51 50h2v2h-2z" fill="#ffffff" data-original="#000000" style="" class=""/><path d="m53 52h2v2h-2z" fill="#ffffff" data-original="#000000" style="" class=""/><path d="m55 50h2v2h-2z" fill="#ffffff" data-original="#000000" style="" class=""/><path d="m53 48h2v2h-2z" fill="#ffffff" data-original="#000000" style="" class=""/><path d="m56 4h2v2h-2z" fill="#ffffff" data-original="#000000" style="" class=""/><path d="m58 6h2v2h-2z" fill="#ffffff" data-original="#000000" style="" class=""/><path d="m60 4h2v2h-2z" fill="#ffffff" data-original="#000000" style="" class=""/><path d="m58 2h2v2h-2z" fill="#ffffff" data-original="#000000" style="" class=""/><path d="m41 50h2v2h-2z" fill="#ffffff" data-original="#000000" style="" class=""/><path d="m43 52h2v2h-2z" fill="#ffffff" data-original="#000000" style="" class=""/><path d="m45 50h2v2h-2z" fill="#ffffff" data-original="#000000" style="" class=""/><path d="m43 48h2v2h-2z" fill="#ffffff" data-original="#000000" style="" class=""/><path d="m19 27h6v-2h-5v-9h-2v10a1 1 0 0 0 1 1z" fill="#ffffff" data-original="#000000" style="" class=""/><path d="m40 2a22.032 22.032 0 0 0 -15.885 6.789 17 17 0 0 0 -12.115 31.701v5.694a2.972 2.972 0 0 0 -1.22 4.816 2.971 2.971 0 0 0 1.274 4.833 7 7 0 0 0 13.892 0 2.971 2.971 0 0 0 1.274-4.833 2.972 2.972 0 0 0 -1.22-4.816v-5.245a21.99 21.99 0 1 0 14-38.939zm-36 23a15 15 0 1 1 20.625 13.9 1 1 0 0 0 -.625.93v6.17h-10v-6.17a1 1 0 0 0 -.625-.928 14.924 14.924 0 0 1 -9.375-13.902zm25.694-13.2a15.813 15.813 0 0 1 10.306-3.8 16 16 0 1 1 -9.088 29.14 16.994 16.994 0 0 0 -1.218-25.34zm-16.694 36.2h12a1 1 0 0 1 0 2h-12a1 1 0 0 1 0-2zm6 12a5.009 5.009 0 0 1 -4.9-4h9.8a5.009 5.009 0 0 1 -4.9 4zm6-6h-12a1 1 0 0 1 0-2h12a1 1 0 0 1 0 2zm15-10a19.934 19.934 0 0 1 -12.412-4.339 16.9 16.9 0 0 0 1.775-1.183 18 18 0 1 0 -1.341-27.86 17.171 17.171 0 0 0 -1.867-1.018 19.99 19.99 0 1 1 13.845 34.4z" fill="#ffffff" data-original="#000000" style="" class=""/><path d="m39 10h2v2h-2z" fill="#ffffff" data-original="#000000" style="" class=""/><path d="m39 36h2v2h-2z" fill="#ffffff" data-original="#000000" style="" class=""/><path d="m45.5 34.259h1.999v1.999h-1.999z" transform="matrix(.866 -.5 .5 .866 -11.4 27.982)" fill="#ffffff" data-original="#000000" style="" class=""/><path d="m50.258 29.5h2v2h-2z" transform="matrix(.5 -.866 .866 .5 -.782 59.646)" fill="#ffffff" data-original="#000000" style="" class=""/><path d="m52 23h2v2h-2z" fill="#ffffff" data-original="#000000" style="" class=""/><path d="m50.258 16.5h2v2h-2z" transform="matrix(.866 -.5 .5 .866 -1.884 27.969)" fill="#ffffff" data-original="#000000" style="" class=""/><path d="m45.5 11.742h1.999v1.999h-1.999z" transform="matrix(.5 -.866 .866 .5 12.21 46.636)" fill="#ffffff" data-original="#000000" style="" class=""/><path d="m40 27a3 3 0 0 0 2.816-2h3.184v-2h-3.184a3 3 0 0 0 -1.816-1.816v-7.184h-2v7.184a2.993 2.993 0 0 0 1 5.816zm0-4a1 1 0 1 1 -1 1 1 1 0 0 1 1-1z" fill="#ffffff" data-original="#000000" style="" class=""/><path d="m18 12h2v2h-2z" fill="#ffffff" data-original="#000000" style="" class=""/><path d="m12 13.607h2v2h-2z" transform="matrix(.866 -.5 .5 .866 -5.561 8.455)" fill="#ffffff" data-original="#000000" style="" class=""/><path d="m7.608 18h2v2h-2z" transform="matrix(.5 -.866 .866 .5 -12.151 16.954)" fill="#ffffff" data-original="#000000" style="" class=""/><path d="m6 24h2v2h-2z" fill="#ffffff" data-original="#000000" style="" class=""/><path d="m7.608 30h2v2h-2z" transform="matrix(.866 -.5 .5 .866 -14.345 8.455)" fill="#ffffff" data-original="#000000" style="" class=""/><path d="m12 34.392h2v2h-2z" transform="matrix(.5 -.866 .866 .5 -24.151 28.958)" fill="#ffffff" data-original="#000000" style="" class=""/><path d="m18 36h2v2h-2z" fill="#ffffff" data-original="#000000" style="" class=""/><path d="m24 34.392h2v2h-2z" transform="matrix(.866 -.5 .5 .866 -14.345 17.238)" fill="#ffffff" data-original="#000000" style="" class=""/><path d="m28.392 30h2v2h-2z" transform="matrix(.5 -.866 .866 .5 -12.151 40.953)" fill="#ffffff" data-original="#000000" style="" class=""/><path d="m30 24h2v2h-2z" fill="#ffffff" data-original="#000000" style="" class=""/><path d="m28.392 18h2v2h-2z" transform="matrix(.866 -.5 .5 .866 -5.562 17.238)" fill="#ffffff" data-original="#000000" style="" class=""/><path d="m24 13.607h2v2h-2z" transform="matrix(.5 -.866 .866 .5 -.149 28.957)" fill="#ffffff" data-original="#000000" style="" class=""/></g></g></svg>
