<?xml version="1.0"?>
<svg xmlns="http://www.w3.org/2000/svg" xmlns:xlink="http://www.w3.org/1999/xlink" xmlns:svgjs="http://svgjs.com/svgjs" version="1.1" width="512" height="512" x="0" y="0" viewBox="0 0 512.00104 512" style="enable-background:new 0 0 512 512" xml:space="preserve"><g><path xmlns="http://www.w3.org/2000/svg" d="m510.527344 445.144531-54.527344-88.183593v-231.085938c0-5.570312-4.519531-10.09375-10.09375-10.09375h-75.285156c.109375-2 .167968-4.007812.167968-6.027344 0-29.289062-11.386718-56.789062-32.058593-77.507812-.113281-.125-.214844-.25-.335938-.367188-19.617187-19.480468-45.613281-30.773437-73.207031-31.7929685-1.429688-.0546875-2.707031-.08203125-3.902344-.0859375-.007812 0-.011718 0-.011718 0-.074219 0-.144532 0-.210938 0-.0625 0-.128906.00390625-.191406.00390625-.011719 0-.027344 0-.039063 0-29.058593.05859375-56.414062 11.35546875-77.054687 31.82421875-.015625.019531-.035156.03125-.050782.050781-20.90625 20.757813-32.421874 48.417969-32.421874 77.871094 0 2.019531.0625 4.03125.167968 6.03125h-83.417968c-5.574219 0-10.09375 4.519531-10.09375 10.09375v231l-56.371094 88.140625c-1.988282 3.105469-2.121094 7.050781-.347656 10.285156 1.769531 3.234375 5.164062 5.246094 8.851562 5.246094h31.777344c5.574218 0 10.09375-4.519531 10.09375-10.09375s-4.519532-10.09375-10.09375-10.09375h-13.339844l45.046875-70.441406h19.992187l-21.035156 41.949219c-3.308594 6.601562 1.660156 14.617187 9.023438 14.617187h350.742187c7.382813 0 12.351563-8.054687 9-14.65625l-21.253906-41.910156h20.234375l43.554688 70.441406h-362.226563c-5.574219 0-10.09375 4.519531-10.09375 10.09375s4.519531 10.09375 10.09375 10.09375h380.335937c7.742188 0 12.671876-8.792969 8.582032-15.402344zm-205.441406-335.390625c0 13.195313-2.402344 25.941406-7.136719 38.011719-11.695313-4.167969-24.140625-6.339844-36.914063-6.339844-12.742187 0-25.117187 2.148438-36.921875 6.378907-4.746093-12.078126-7.148437-24.839844-7.148437-38.050782 0-13.210937 2.402344-25.972656 7.148437-38.050781 11.804688 4.230469 24.179688 6.378906 36.921875 6.378906 12.773438 0 25.21875-2.171875 36.914063-6.339843 4.734375 12.066406 7.136719 24.8125 7.136719 38.011718zm-44.050782 87.777344c-10.871094-7.296875-19.664062-17.199219-27.921875-31.472656 8.960938-2.949219 18.3125-4.445313 27.921875-4.445313 9.625 0 19.007813 1.535157 27.902344 4.441407-8.257812 14.28125-17.042969 24.183593-27.902344 31.476562zm46.328125-23.027344c2.972657 1.804688 5.84375 3.800782 8.613281 5.960938-6.300781 4.902344-13.179687 8.910156-20.46875 11.953125 4.15625-5.320313 8.085938-11.246094 11.855469-17.914063zm-74.246093-121.054687c8.25-14.265625 17.050781-24.164063 27.941406-31.476563 10.824218 7.28125 19.597656 17.183594 27.863281 31.484375-8.890625 2.902344-18.269531 4.4375-27.886719 4.4375-9.609375 0-18.960937-1.496093-27.917968-4.445312zm74.25-8.449219c-3.292969-5.867188-7.160157-11.964844-11.824219-17.90625 7.28125 3.039062 14.152343 7.042969 20.445312 11.941406-2.769531 2.160156-5.644531 4.15625-8.621093 5.964844zm-92.65625-.042969c-2.976563-1.804687-5.851563-3.773437-8.597657-5.910156 6.3125-4.925781 13.183594-8.957031 20.472657-11.996094-4.167969 5.316407-8.101563 11.242188-11.875 17.90625zm0 129.59375c3.773437 6.667969 7.710937 12.597657 11.878906 17.917969-7.292969-3.039062-14.171875-7.070312-20.492188-12 2.753906-2.140625 5.628906-4.113281 8.613282-5.917969zm-31.269532 12.789063c.089844.097656.167969.195312.261719.289062 20.6875 20.542969 48.132813 31.863282 77.28125 31.875 1.390625.011719 2.785156-.03125 4.175781-.082031 27.585938-1.023437 53.578125-12.308594 73.195313-31.78125.003906-.003906.007812-.007813.011719-.011719.015624-.015625.027343-.03125.042968-.042968.003906-.003907.003906-.007813.007813-.007813.003906-.003906.007812-.007813.007812-.011719 5.140625-5.109375 9.707031-10.636718 13.675781-16.503906h47.59375v143.578125h-285.429687v-143.578125h55.722656c3.914063 5.78125 8.40625 11.230469 13.453125 16.277344.089844.097656-5.046875-5.046875 0 0zm154.730469-32.023438c-.203125.300782-.390625.617188-.558594.941406-2.117187 3.464844-4.476562 6.796876-7.074219 9.976563-4.515624-3.707031-9.285156-7.023437-14.265624-9.933594 5.96875-14.757812 9-30.371093 9-46.546875 0-16.179687-3.03125-31.789062-9-46.550781 4.980468-2.910156 9.75-6.222656 14.265624-9.933594 12.992188 15.921875 20.0625 35.648438 20.0625 56.484375 0 16.296875-4.332031 31.910156-12.429687 45.5625zm-146.628906-102.054687c4.484375 3.675781 9.246093 6.980469 14.25 9.898437-5.980469 14.769532-9.015625 30.398438-9.015625 46.59375 0 16.191406 3.035156 31.820313 9.015625 46.59375-5.003907 2.917969-9.765625 6.222656-14.25 9.898438-2.617188-3.210938-4.984375-6.582032-7.113281-10.078125-.015626-.027344-.035157-.058594-.050782-.089844-8.394531-13.828125-12.886718-29.722656-12.886718-46.324219 0-20.835937 7.058593-40.570312 20.050781-56.492187zm224.320312 353.039062h-317.953125l18.242188-36.378906h281.257812zm-12.253906-56.566406h-325.464844v-213.765625h76.296875c1.242188 5.09375 2.847656 10.070312 4.800782 14.90625h-55.070313c-5.574219 0-10.09375 4.519531-10.09375 10.09375v163.765625c0 5.574219 4.519531 10.09375 10.09375 10.09375h305.613281c5.574219 0 10.09375-4.519531 10.09375-10.09375v-163.765625c0-5.574219-4.519531-10.09375-10.09375-10.09375h-46.933594c1.953126-4.835938 3.554688-9.816406 4.796876-14.90625h68.164062v213.765625zm0 0" fill="#ffffff" data-original="#000000" style=""/><path xmlns="http://www.w3.org/2000/svg" d="m129.007812 397.191406h17.140626c5.574218 0 10.09375-4.519531 10.09375-10.089844 0-5.574218-4.519532-10.09375-10.09375-10.09375h-17.140626c-5.574218 0-10.09375 4.519532-10.09375 10.09375 0 5.570313 4.519532 10.089844 10.09375 10.089844zm0 0" fill="#ffffff" data-original="#000000" style=""/><path xmlns="http://www.w3.org/2000/svg" d="m176.78125 397.191406h17.144531c5.570313 0 10.089844-4.519531 10.089844-10.089844 0-5.574218-4.519531-10.09375-10.089844-10.09375h-17.144531c-5.574219 0-10.09375 4.519532-10.09375 10.09375 0 5.570313 4.519531 10.089844 10.09375 10.089844zm0 0" fill="#ffffff" data-original="#000000" style=""/><path xmlns="http://www.w3.org/2000/svg" d="m224.558594 397.191406h17.140625c5.574219 0 10.09375-4.519531 10.09375-10.089844 0-5.574218-4.519531-10.09375-10.09375-10.09375h-17.140625c-5.574219 0-10.09375 4.519532-10.09375 10.09375 0 5.570313 4.519531 10.089844 10.09375 10.089844zm0 0" fill="#ffffff" data-original="#000000" style=""/><path xmlns="http://www.w3.org/2000/svg" d="m272.332031 397.191406h17.140625c5.574219 0 10.09375-4.519531 10.09375-10.089844 0-5.574218-4.519531-10.09375-10.09375-10.09375h-17.140625c-5.574219 0-10.09375 4.519532-10.09375 10.09375 0 5.570313 4.519531 10.089844 10.09375 10.089844zm0 0" fill="#ffffff" data-original="#000000" style=""/><path xmlns="http://www.w3.org/2000/svg" d="m320.109375 397.191406h17.140625c5.574219 0 10.09375-4.519531 10.09375-10.089844 0-5.574218-4.519531-10.09375-10.09375-10.09375h-17.140625c-5.574219 0-10.09375 4.519532-10.09375 10.09375 0 5.570313 4.515625 10.089844 10.09375 10.089844zm0 0" fill="#ffffff" data-original="#000000" style=""/><path xmlns="http://www.w3.org/2000/svg" d="m367.882812 397.191406h17.140626c5.574218 0 10.09375-4.519531 10.09375-10.089844 0-5.574218-4.519532-10.09375-10.09375-10.09375h-17.140626c-5.574218 0-10.09375 4.519532-10.09375 10.09375 0 5.570313 4.519532 10.089844 10.09375 10.089844zm0 0" fill="#ffffff" data-original="#000000" style=""/><path xmlns="http://www.w3.org/2000/svg" d="m81.234375 440.355469c-4.214844 0-8.058594 2.722656-9.488281 6.679687-1.429688 3.949219-.1875 8.527344 3.058594 11.199219 3.253906 2.683594 7.933593 3.046875 11.5625.910156 3.621093-2.132812 5.578124-6.460937 4.777343-10.589843-.90625-4.691407-5.121093-8.199219-9.910156-8.199219zm0 0" fill="#ffffff" data-original="#000000" style=""/><path xmlns="http://www.w3.org/2000/svg" d="m214.738281 259h92.613281c5.574219 0 10.09375-4.519531 10.09375-10.09375s-4.519531-10.09375-10.09375-10.09375h-92.613281c-5.574219 0-10.09375 4.519531-10.09375 10.09375s4.519531 10.09375 10.09375 10.09375zm0 0" fill="#ffffff" data-original="#000000" style=""/><path xmlns="http://www.w3.org/2000/svg" d="m214.738281 291.625h92.613281c5.574219 0 10.09375-4.519531 10.09375-10.09375s-4.519531-10.09375-10.09375-10.09375h-92.613281c-5.574219 0-10.09375 4.519531-10.09375 10.09375s4.519531 10.09375 10.09375 10.09375zm0 0" fill="#ffffff" data-original="#000000" style=""/></g></svg>
